<svg viewBox="0 0 40 40" xmlns="http://www.w3.org/2000/svg" xmlns:xlink="http://www.w3.org/1999/xlink" width="40.000000" height="40.000000" fill="none" customFrame="#000000">
	<defs>
		<clipPath id="clipPath_0">
			<rect width="18.000000" height="18.000000" x="11.000000" y="11.000000" fill="rgb(255,255,255)" />
		</clipPath>
	</defs>
	<rect id="twitter" width="40.000000" height="40.000000" x="0.000000" y="0.000000" />
	<rect id="Rectangle" width="39.000000" height="39.000000" x="0.500000" y="0.500000" rx="7.500000" opacity="0.200000003" stroke="rgb(17,17,17)" stroke-width="1" />
	<g id="twitter" clip-path="url(#clipPath_0)" customFrame="url(#clipPath_0)">
		<rect id="twitter" width="18.000000" height="18.000000" x="11.000000" y="11.000000" fill="rgb(255,255,255)" fill-opacity="0" />
		<path id="Vector" d="M25.895 14.3982C25.4433 13.8788 24.843 13.5107 24.1753 13.3437C23.5075 13.1766 22.8046 13.2186 22.1616 13.464C21.5185 13.7095 20.9663 14.1465 20.5797 14.716C20.1931 15.2855 19.9908 15.96 20 16.6482L20 17.3982C18.682 17.4324 17.376 17.1401 16.1983 16.5473C15.0206 15.9545 13.7577 14.543 13 13.464C13 13.464 10.25 20.7507 17 23.7507C15.4554 24.7992 13.6154 25.3249 11.75 25.2507C18.5 29.0007 26.75 25.2507 26.75 16.6257C26.7493 16.4168 26.7292 16.2084 26.69 16.0032C27.4555 15.2483 27.9956 14.2952 28.25 13.2507C27.5318 13.7573 26.7366 14.1448 25.895 14.3982Z" fill-rule="nonzero" stroke="rgb(17,17,17)" stroke-linecap="round" stroke-linejoin="round" stroke-width="1.5" />
	</g>
</svg>
